<svg width="65" height="64" viewBox="0 0 65 64" fill="none" xmlns="http://www.w3.org/2000/svg">
<g clip-path="url(#clip0_160_118)">
<path d="M10.715 13.5295L0.828 23.4295L16.076 38.7245L0.75 54.0955L10.6075 64.002L25.965 48.625L41.2385 63.8905L51.127 53.9905L10.715 13.5295Z" fill="#53B9FF"/>
<path d="M35.8791 38.7251L25.9651 48.6251L41.2386 63.8906L51.1271 53.9906L35.8791 38.7251Z" fill="#119EFF"/>
<path d="M35.8791 38.7251L25.9651 48.6251L29.7816 52.4201L35.8791 38.7251Z" fill="black" fill-opacity="0.2"/>
<path d="M49.3925 25.246L64.75 9.869L54.8575 0L39.506 15.3455L24.2285 0.078L14.342 9.9785L54.752 50.4395L64.6405 40.5395L49.3925 25.246Z" fill="#53B9FF"/>
<path d="M29.59 25.2461L39.504 15.3461L24.2285 0.0776367L14.342 9.97864L29.59 25.2461Z" fill="#119EFF"/>
<path d="M29.5901 25.2458L39.5041 15.3458L35.6876 11.5488L29.5901 25.2458Z" fill="black" fill-opacity="0.2"/>
</g>
<defs>
<clipPath id="clip0_160_118">
<rect width="64" height="64" fill="white" transform="translate(0.75)"/>
</clipPath>
</defs>
</svg>
