<svg width="65" height="64" viewBox="0 0 65 64" fill="none" xmlns="http://www.w3.org/2000/svg">
<path d="M24.785 16.33C17.6 15.02 11.925 16.39 9.65996 20.33C7.96996 23.255 8.45496 27.135 10.83 31.28C10.8782 31.3641 10.9426 31.4378 11.0193 31.497C11.0961 31.5561 11.1837 31.5996 11.2773 31.6249C11.3708 31.6502 11.4685 31.6569 11.5646 31.6444C11.6607 31.632 11.7534 31.6008 11.8375 31.5525C11.9215 31.5043 11.9952 31.4399 12.0544 31.3632C12.1136 31.2864 12.1571 31.1988 12.1824 31.1052C12.2077 31.0116 12.2143 30.914 12.2019 30.8179C12.1895 30.7218 12.1582 30.6291 12.11 30.545C9.96996 26.81 9.54996 23.46 10.935 21.045C12.815 17.79 17.88 16.545 24.52 17.775C24.7122 17.8102 24.9106 17.7675 25.0714 17.6564C25.2322 17.5452 25.3423 17.3748 25.3775 17.1825C25.4126 16.9902 25.3699 16.7919 25.2588 16.6311C25.1477 16.4702 24.9772 16.3602 24.785 16.325V16.33ZM14.565 36.305C17.7686 39.7384 21.4781 42.6621 25.565 44.975C35.985 50.975 47.065 52.6 52.565 48.87C52.7261 48.7599 52.8369 48.5904 52.873 48.3986C52.9091 48.2069 52.8675 48.0086 52.7575 47.8475C52.6474 47.6864 52.4778 47.5756 52.2861 47.5395C52.0943 47.5034 51.8961 47.5449 51.735 47.655C46.805 51 36.25 49.46 26.285 43.695C22.3359 41.4568 18.7513 38.6293 15.655 35.31C15.5224 35.1655 15.3378 35.0795 15.1418 35.0711C14.9458 35.0626 14.7545 35.1324 14.61 35.265C14.4654 35.3976 14.3795 35.5822 14.371 35.7782C14.3626 35.9742 14.4324 36.1655 14.565 36.31V36.305Z" fill="#47848F"/>
<path d="M50.78 35.4051C55.485 29.8501 57.125 24.2601 54.865 20.3501C53.205 17.4701 49.69 15.9501 45.02 15.8901C44.8244 15.8901 44.6369 15.9678 44.4985 16.1061C44.3602 16.2445 44.2825 16.432 44.2825 16.6276C44.2825 16.8232 44.3602 17.0108 44.4985 17.1491C44.6369 17.2874 44.8244 17.3651 45.02 17.3651C49.22 17.4201 52.245 18.7301 53.61 21.0901C55.485 24.3401 54.02 29.3251 49.675 34.4601C49.6127 34.534 49.5654 34.6194 49.5361 34.7116C49.5067 34.8037 49.4958 34.9007 49.5039 34.997C49.512 35.0934 49.5391 35.1871 49.5834 35.273C49.6278 35.3589 49.6887 35.4353 49.7625 35.4976C49.8364 35.56 49.9218 35.6072 50.014 35.6366C50.1061 35.666 50.2031 35.6769 50.2994 35.6688C50.3957 35.6606 50.4895 35.6336 50.5754 35.5892C50.6613 35.5449 50.7377 35.484 50.8 35.4101L50.78 35.4051ZM38.695 16.5751C34.0785 17.6228 29.6514 19.3768 25.57 21.7751C14.815 28.0001 7.79503 37.1451 8.75003 43.7851C8.76415 43.8836 8.79753 43.9784 8.84826 44.064C8.89899 44.1496 8.96609 44.2243 9.04572 44.284C9.12534 44.3436 9.21594 44.387 9.31234 44.4117C9.40873 44.4363 9.50904 44.4418 9.60753 44.4276C9.70602 44.4135 9.80077 44.3801 9.88636 44.3294C9.97195 44.2787 10.0467 44.2116 10.1064 44.132C10.166 44.0523 10.2094 43.9617 10.2341 43.8653C10.2587 43.7689 10.2642 43.6686 10.25 43.5701C9.36503 37.6751 16.015 29.0001 26.305 23.0551C30.253 20.7266 34.5368 19.0216 39.005 18.0001C39.0996 17.9798 39.1892 17.941 39.2688 17.886C39.3483 17.831 39.4163 17.7609 39.4688 17.6797C39.5212 17.5984 39.5572 17.5076 39.5745 17.4125C39.5919 17.3173 39.5904 17.2197 39.57 17.1251C39.5497 17.0306 39.5109 16.941 39.4559 16.8614C39.4009 16.7818 39.3308 16.7139 39.2495 16.6614C39.1683 16.609 39.0775 16.573 38.9824 16.5556C38.8872 16.5382 38.7896 16.5398 38.695 16.5601V16.5751Z" fill="#47848F"/>
<path d="M21.25 48.3899C23.75 55.2549 27.75 59.4999 32.275 59.4999C35.575 59.4999 38.625 57.2499 41.005 53.2899C41.1098 53.1235 41.1441 52.9223 41.1005 52.7305C41.0569 52.5388 40.9389 52.3722 40.7725 52.2674C40.6061 52.1627 40.4049 52.1283 40.2131 52.1719C40.0214 52.2155 39.8548 52.3335 39.75 52.4999C37.61 56.0599 34.985 57.9999 32.28 57.9999C28.52 57.9999 24.935 54.2299 22.66 47.8799C22.5937 47.6963 22.4572 47.5465 22.2804 47.4635C22.1037 47.3805 21.9012 47.3711 21.7175 47.4374C21.5339 47.5037 21.3841 47.6403 21.3011 47.817C21.2181 47.9938 21.2087 48.1963 21.275 48.3799L21.25 48.3899ZM43.75 47.0449C45.0801 42.6182 45.7391 38.017 45.705 33.3949C45.705 21.1899 41.435 10.6749 35.35 7.96991C35.2614 7.93052 35.1658 7.90897 35.0689 7.90649C34.9719 7.90401 34.8754 7.92066 34.7849 7.95549C34.6943 7.99031 34.6115 8.04262 34.5412 8.10944C34.4709 8.17626 34.4144 8.25627 34.375 8.34491C34.2955 8.52394 34.2903 8.72723 34.3606 8.91008C34.4309 9.09293 34.571 9.24035 34.75 9.31991C40.175 11.7299 44.25 21.7099 44.25 33.3949C44.2833 37.8679 43.6462 42.3207 42.36 46.6049C42.3311 46.6972 42.3207 46.7942 42.3293 46.8905C42.3379 46.9868 42.3654 47.0804 42.4102 47.1661C42.455 47.2518 42.5163 47.3278 42.5904 47.3898C42.6646 47.4517 42.7503 47.4985 42.8425 47.5274C42.9348 47.5563 43.0318 47.5667 43.1281 47.5581C43.2244 47.5495 43.318 47.522 43.4037 47.4772C43.4894 47.4324 43.5654 47.3712 43.6274 47.297C43.6893 47.2228 43.7361 47.1372 43.765 47.0449H43.75ZM57.605 46.3249C57.605 45.6277 57.3983 44.9462 57.0109 44.3665C56.6236 43.7868 56.0731 43.335 55.429 43.0682C54.7849 42.8014 54.0761 42.7316 53.3923 42.8676C52.7085 43.0037 52.0804 43.3394 51.5875 43.8324C51.0945 44.3253 50.7588 44.9534 50.6227 45.6372C50.4867 46.321 50.5565 47.0298 50.8233 47.6739C51.0901 48.318 51.542 48.8685 52.1216 49.2558C52.7013 49.6432 53.3828 49.8499 54.08 49.8499C54.5429 49.8499 55.0013 49.7587 55.429 49.5816C55.8567 49.4044 56.2452 49.1448 56.5726 48.8175C56.8999 48.4901 57.1595 48.1015 57.3367 47.6739C57.5138 47.2462 57.605 46.7878 57.605 46.3249ZM56.13 46.3249C56.13 46.7304 56.0098 47.1267 55.7845 47.4638C55.5593 47.801 55.2391 48.0637 54.8645 48.2189C54.4899 48.374 54.0777 48.4146 53.6801 48.3355C53.2824 48.2564 52.9171 48.0612 52.6305 47.7745C52.3438 47.4878 52.1485 47.1225 52.0694 46.7248C51.9903 46.3272 52.0309 45.915 52.1861 45.5404C52.3412 45.1658 52.604 44.8457 52.9411 44.6204C53.2782 44.3951 53.6746 44.2749 54.08 44.2749C54.6237 44.2749 55.1451 44.4909 55.5296 44.8753C55.914 45.2598 56.13 45.7812 56.13 46.3249ZM10.42 49.8499C11.1172 49.8499 11.7987 49.6432 12.3784 49.2558C12.9581 48.8685 13.4099 48.318 13.6767 47.6739C13.9435 47.0298 14.0133 46.321 13.8773 45.6372C13.7413 44.9534 13.4056 44.3253 12.9126 43.8324C12.4196 43.3394 11.7915 43.0037 11.1077 42.8676C10.4239 42.7316 9.71517 42.8014 9.07106 43.0682C8.42695 43.335 7.87642 43.7868 7.48909 44.3665C7.10176 44.9462 6.89502 45.6277 6.89502 46.3249C6.89502 47.2598 7.2664 48.1564 7.92747 48.8175C8.58853 49.4785 9.48513 49.8499 10.42 49.8499ZM10.42 48.3749C10.0146 48.3749 9.61822 48.2547 9.2811 48.0294C8.94398 47.8042 8.68123 47.484 8.52607 47.1094C8.37091 46.7348 8.33031 46.3226 8.40941 45.925C8.48851 45.5273 8.68375 45.162 8.97045 44.8753C9.25715 44.5886 9.62242 44.3934 10.0201 44.3143C10.4177 44.2352 10.8299 44.2758 11.2045 44.431C11.5791 44.5861 11.8993 44.8489 12.1245 45.186C12.3498 45.5231 12.47 45.9195 12.47 46.3249C12.47 46.8686 12.254 47.39 11.8696 47.7745C11.4851 48.1589 10.9637 48.3749 10.42 48.3749Z" fill="#47848F"/>
<path d="M32.275 11.5651C32.9722 11.5651 33.6537 11.3584 34.2334 10.9711C34.8131 10.5837 35.2649 10.0332 35.5317 9.3891C35.7985 8.74499 35.8683 8.03623 35.7323 7.35245C35.5963 6.66866 35.2605 6.04057 34.7676 5.54759C34.2746 5.05461 33.6465 4.71888 32.9627 4.58287C32.2789 4.44686 31.5702 4.51666 30.926 4.78346C30.2819 5.05026 29.7314 5.50207 29.3441 6.08175C28.9567 6.66144 28.75 7.34296 28.75 8.04014C28.75 8.97503 29.1214 9.87162 29.7824 10.5327C30.4435 11.1938 31.3401 11.5651 32.275 11.5651ZM32.275 10.0901C31.8695 10.0901 31.4732 9.96991 31.1361 9.74465C30.799 9.51939 30.5362 9.19923 30.381 8.82464C30.2259 8.45005 30.1853 8.03786 30.2644 7.6402C30.3435 7.24254 30.5387 6.87727 30.8254 6.59057C31.1121 6.30387 31.4774 6.10863 31.8751 6.02953C32.2727 5.95043 32.6849 5.99103 33.0595 6.14619C33.4341 6.30135 33.7543 6.5641 33.9795 6.90122C34.2048 7.23834 34.325 7.63469 34.325 8.04014C34.325 8.58383 34.109 9.10526 33.7246 9.48971C33.3401 9.87416 32.8187 10.0901 32.275 10.0901ZM32.815 35.8851C32.3222 35.9954 31.8077 35.9569 31.3368 35.7744C30.8659 35.5919 30.4598 35.2738 30.17 34.8602C29.8801 34.4467 29.7196 33.9564 29.7088 33.4515C29.6979 32.9466 29.8372 32.4498 30.109 32.0242C30.3808 31.5986 30.7729 31.2633 31.2355 31.0607C31.6981 30.8582 32.2105 30.7976 32.7076 30.8866C33.2047 30.9756 33.6642 31.2102 34.0278 31.5607C34.3914 31.9111 34.6428 32.3616 34.75 32.8551C34.893 33.5134 34.7699 34.2015 34.4073 34.7692C34.0448 35.3369 33.4723 35.738 32.815 35.8851Z" fill="#47848F"/>
</svg>
