<svg width="65" height="64" viewBox="0 0 65 64" fill="none" xmlns="http://www.w3.org/2000/svg">
<g clip-path="url(#clip0_160_126)">
<path d="M23 64.5C28.95 64.5 33.75 59.7 33.75 53.75V43H23C17.05 43 12.25 47.8 12.25 53.75C12.25 59.7 17.05 64.5 23 64.5Z" fill="#0ACF83"/>
<path d="M12.25 32.25C12.25 26.3 17.05 21.5 23 21.5H33.75V43H23C17.05 43 12.25 38.2 12.25 32.25Z" fill="#A259FF"/>
<path d="M12.25 10.75C12.25 4.8 17.05 0 23 0H33.75V21.5H23C17.05 21.5 12.25 16.7 12.25 10.75Z" fill="#F24E1E"/>
<path d="M33.75 0H44.5C50.45 0 55.25 4.8 55.25 10.75C55.25 16.7 50.45 21.5 44.5 21.5H33.75V0Z" fill="#FF7262"/>
<path d="M55.25 32.25C55.25 38.2 50.45 43 44.5 43C38.55 43 33.75 38.2 33.75 32.25C33.75 26.3 38.55 21.5 44.5 21.5C50.45 21.5 55.25 26.3 55.25 32.25Z" fill="#1ABCFE"/>
</g>
<defs>
<clipPath id="clip0_160_126">
<rect width="64" height="64" fill="white" transform="translate(0.25)"/>
</clipPath>
</defs>
</svg>
