<svg width="65" height="64" viewBox="0 0 65 64" fill="none" xmlns="http://www.w3.org/2000/svg">
<g clip-path="url(#clip0_160_105)">
<path d="M38.4115 0.199963C37.9625 0.199963 37.5135 0.299463 37.1145 0.448963C37.9625 0.997963 38.4115 1.74596 38.661 2.59396C38.661 2.69396 38.711 2.79396 38.711 2.89346C38.711 2.99346 38.761 3.09296 38.761 3.19246C38.811 4.63946 38.3615 4.83896 38.0625 5.68696C37.5635 6.78396 37.7135 7.98146 38.312 8.92896C38.362 9.02896 38.412 9.17896 38.5115 9.27846C37.863 5.08846 41.3545 4.48946 42.003 3.19246C42.053 2.04546 41.1055 1.29746 40.357 0.748463C39.609 0.299463 39.01 0.199463 38.412 0.199463L38.4115 0.199963ZM43.65 1.09696C43.6 1.49596 43.65 1.39646 43.6 1.59596C43.6 1.74546 43.6 1.89496 43.55 2.04496C43.5 2.19446 43.5 2.29446 43.45 2.44396C43.4 2.59396 43.3505 2.69346 43.3005 2.84296C43.2505 2.94296 43.2005 3.04246 43.1505 3.19196C43.101 3.24196 43.051 3.34196 43.0015 3.39196C42.9515 3.44196 42.9515 3.49146 42.9015 3.54146C42.8015 3.64146 42.7515 3.79046 42.652 3.89046L42.353 4.18996C42.253 4.28996 42.153 4.38946 42.0535 4.43896C41.7045 4.68896 41.3055 4.88796 40.956 5.13746C40.856 5.23746 40.7065 5.28746 40.607 5.38696C40.507 5.48696 40.407 5.53696 40.3075 5.63646L40.0085 5.93546C39.9085 6.03546 39.8085 6.13546 39.7585 6.28496C39.659 6.38496 39.609 6.53446 39.5095 6.63396C39.4595 6.78396 39.4095 6.88346 39.31 7.03296C39.26 7.18296 39.21 7.28296 39.16 7.43196C39.11 7.58196 39.0605 7.73146 39.0605 7.83096C39.0605 7.88096 39.0605 7.98096 39.0105 8.03096C39.0105 8.08096 39.0105 8.18046 38.9605 8.23046V8.92846C38.9605 9.07846 38.9605 9.17846 39.0105 9.32746C39.0105 9.47746 39.0605 9.57746 39.1105 9.72696C39.1605 9.87646 39.2105 9.97596 39.2605 10.126C39.31 10.226 39.36 10.2755 39.36 10.3755L35.5685 8.92846C34.9432 8.73906 34.3111 8.57278 33.6735 8.42996C33.324 8.32996 32.975 8.27996 32.6255 8.17996C31.6357 7.98177 30.6369 7.83209 29.6325 7.73146H29.5325C28.535 7.63146 27.5875 7.58146 26.59 7.58146C25.8415 7.58146 25.143 7.63146 24.445 7.68146C23.447 7.73146 22.45 7.88146 21.452 8.03096L20.7035 8.18046C20.205 8.28046 19.706 8.37996 19.207 8.52946C18.9575 8.57946 18.7085 8.67946 18.459 8.72946C18.2095 8.82896 17.96 8.92846 17.7605 9.02846C17.561 9.12846 17.4115 9.17846 17.212 9.27796C17.162 9.27796 17.162 9.27796 17.112 9.32796C16.962 9.42746 16.813 9.47746 16.663 9.57696C16.613 9.57696 16.563 9.62696 16.563 9.62696C16.364 9.72696 16.214 9.82696 16.0645 9.87646C15.9645 9.92646 15.815 9.97646 15.7155 10.0265C15.6655 10.076 15.6155 10.076 15.5655 10.126C15.416 10.226 15.2665 10.2755 15.1165 10.375C14.967 10.475 14.8175 10.525 14.7175 10.625C14.6175 10.7245 14.468 10.7745 14.3685 10.874C14.3685 10.874 14.3185 10.874 14.3185 10.924C14.2185 10.974 14.119 11.074 14.0195 11.1735L13.9695 11.2235C13.8695 11.2735 13.8195 11.373 13.72 11.423C13.67 11.423 13.67 11.473 13.62 11.473C13.5205 11.523 13.4705 11.6225 13.371 11.672C13.371 11.722 13.321 11.722 13.321 11.722L13.0215 12.0215L12.9715 12.0715L12.6725 12.3705C12.6725 12.3705 12.6725 12.4205 12.6225 12.4205L12.373 12.67C12.323 12.72 12.273 12.72 12.273 12.77L11.974 13.069C11.974 13.119 11.924 13.119 11.924 13.169L11.525 13.5675L11.475 13.6175C11.226 13.917 10.9265 14.1665 10.6275 14.416C10.328 14.665 10.0285 14.9145 9.6795 15.164C9.3305 15.4135 9.031 15.613 8.682 15.8125C8.3325 16.012 7.9835 16.1615 7.6345 16.3115C7.285 16.461 6.936 16.6105 6.587 16.7105C5.8885 16.8605 5.19 17.1595 4.5915 17.209C4.5915 16.96 4.4415 17.0095 4.292 17.0095C4.1425 17.0595 3.993 17.0595 3.893 17.1095C3.743 17.1595 3.6435 17.2095 3.494 17.2595C3.35171 17.3053 3.21719 17.3724 3.095 17.4585C2.995 17.5585 2.8455 17.6085 2.746 17.7085C2.646 17.808 2.496 17.9075 2.3965 18.0075C2.2965 18.1075 2.147 18.207 2.0475 18.3065C1.9475 18.4065 1.8475 18.5065 1.748 18.656C1.648 18.8055 1.5485 18.905 1.4985 19.055C1.399 19.155 1.349 19.3045 1.2495 19.454C1.1995 19.604 1.0995 19.753 1.0495 19.903L0.9 20.352C0.85 20.5015 0.85 20.601 0.8 20.751V20.801C0.75 20.951 0.75 21.15 0.75 21.25C0.8 21.2 0.8 21.3 0.8 21.3995V21.599C0.8 21.699 0.85 21.7985 0.85 21.898C0.9 21.998 0.9 22.098 0.95 22.1975C0.9995 22.2975 1.0495 22.397 1.149 22.497C1.199 22.597 1.299 22.6965 1.349 22.796C1.4485 22.896 1.548 22.996 1.648 23.0455C1.748 23.1455 1.8475 23.2455 1.947 23.295C2.346 23.644 2.446 23.744 2.945 24.043C3.045 24.093 3.0945 24.143 3.1945 24.193H3.2445V24.293C3.2445 24.442 3.2945 24.542 3.344 24.6915C3.394 24.8415 3.444 24.991 3.494 25.0905L3.643 25.39C3.643 25.44 3.693 25.44 3.693 25.49C3.743 25.6395 3.843 25.739 3.893 25.839C3.9925 25.939 4.0425 26.0885 4.142 26.188L4.4415 26.4875L4.7405 26.7865H4.7905C4.8905 26.8865 4.99 26.9365 5.09 27.0365C5.19 27.1365 5.3395 27.186 5.439 27.2355C5.539 27.2855 5.6885 27.3855 5.838 27.4355C5.938 27.4855 6.038 27.535 6.187 27.535C6.187 27.535 6.237 27.535 6.237 27.585C6.287 27.585 6.387 27.635 6.437 27.635C6.387 28.5325 6.387 29.3805 6.487 29.68C6.636 30.029 7.3845 28.9815 8.083 27.8345C7.983 28.9815 7.933 30.3285 8.083 30.7275C8.2825 31.1265 9.23 29.8295 10.128 28.4325C21.8005 25.739 32.4755 33.82 33.623 45.2435C33.423 43.4475 31.228 42.45 30.181 42.6995C29.682 43.8965 28.834 45.493 27.4875 46.4405C27.587 45.343 27.5375 44.2455 27.3375 43.1485C26.9885 44.645 26.29 46.0915 25.2925 47.2885C23.746 47.3885 22.15 46.64 21.3515 45.493C21.3015 45.443 21.2515 45.343 21.202 45.293C21.152 45.1935 21.102 45.044 21.052 44.944C21.002 44.844 20.9525 44.6945 20.9525 44.595V43.9965C20.9525 43.8965 21.0025 43.7465 21.0525 43.647C21.1025 43.5475 21.1025 43.3975 21.1525 43.298C21.202 43.198 21.252 43.0485 21.3515 42.949C21.651 42.1505 21.651 41.502 21.102 41.153L20.803 41.003C20.753 41.003 20.653 40.9535 20.603 40.9535C20.553 40.9535 20.5035 40.9035 20.4535 40.9035C20.354 40.8535 20.2045 40.8535 20.1045 40.8035C20.0045 40.7535 19.855 40.7535 19.7555 40.7535C19.6555 40.7535 19.5055 40.704 19.406 40.704H19.157C19.007 40.704 18.907 40.704 18.8075 40.754C18.7075 40.754 18.558 40.804 18.4585 40.804C18.3585 40.854 18.209 40.854 18.109 40.904C18.0095 40.9535 17.9095 41.0035 17.76 41.053L17.4605 41.203C13.6195 43.697 15.9145 49.583 18.5085 51.279C17.5105 51.479 16.513 51.678 16.2135 51.878L16.1635 51.928C16.862 52.3765 17.6105 52.726 18.4085 53.025C19.456 53.3745 20.6035 53.6735 21.102 53.8235C22.449 54.1225 23.846 54.2225 25.2425 54.1225C32.5255 53.6235 38.5115 48.037 39.6085 40.754C39.6585 40.904 39.6585 41.053 39.7085 41.203C39.7585 41.502 39.8085 41.8015 39.8585 42.1505C39.9085 42.3005 39.9085 42.45 39.9085 42.5995V42.6495C39.9085 42.7995 39.958 42.949 39.958 43.0985C39.958 43.298 40.008 43.4475 40.008 43.647V45.742C40.008 45.892 39.958 45.992 39.958 46.1415V46.291C39.958 46.441 39.908 46.5905 39.908 46.79C39.858 46.9395 39.858 47.089 39.808 47.239V47.289C39.758 47.4385 39.758 47.588 39.7085 47.7375V47.7875C39.6585 47.9375 39.6585 48.087 39.6085 48.2365V48.2865L39.459 48.7355V48.7855C39.409 48.935 39.359 49.1345 39.3095 49.284C39.2595 49.434 39.2095 49.5835 39.1095 49.783C39.06 49.9325 39.01 50.132 38.9105 50.2815C38.8605 50.4315 38.7605 50.581 38.7105 50.7805C38.661 50.9305 38.561 51.08 38.5115 51.2295C38.5115 51.2795 38.4615 51.3295 38.4615 51.3295C38.4615 51.3295 38.4615 51.3795 38.4115 51.3795C37.364 53.524 35.768 55.4195 33.7725 56.916C33.6225 57.016 33.523 57.116 33.3735 57.2155C33.3235 57.2655 33.2735 57.2655 33.2735 57.3155C33.1735 57.415 33.024 57.465 32.9245 57.5645L32.9745 57.6645C33.2235 57.6145 33.4235 57.6145 33.6725 57.5645C34.1215 57.5145 34.5205 57.4145 34.9695 57.315C35.0695 57.315 35.2195 57.265 35.319 57.215C35.419 57.215 35.4685 57.165 35.568 57.165C35.6675 57.165 35.818 57.1155 35.9175 57.1155C36.0175 57.0655 36.117 57.0655 36.2165 57.0155C37.863 56.617 39.459 56.068 41.0055 55.4195C38.3615 59.011 34.87 61.9045 30.7795 63.7995C32.675 63.65 34.5705 63.351 36.416 62.802C43.0432 60.856 48.6355 56.375 51.9795 50.3315C51.2815 54.1225 49.7845 57.764 47.54 60.9565C49.1365 59.909 50.583 58.6615 51.93 57.315C55.621 53.474 58.065 48.5355 58.8635 43.298C59.4125 45.892 59.612 48.5855 59.3625 51.2295C71.2845 34.6185 60.36 17.409 55.771 12.8695C55.771 12.8195 55.721 12.8195 55.721 12.7695C55.721 12.9695 55.721 13.1685 55.671 13.3685C55.621 13.7675 55.571 14.1165 55.521 14.4655C55.4215 14.815 55.322 15.214 55.222 15.563C55.122 15.9125 54.9725 16.2615 54.823 16.6105C54.673 16.96 54.5235 17.309 54.324 17.6085C54.1245 17.908 53.925 18.257 53.7255 18.556C53.526 18.8555 53.2765 19.1545 53.027 19.454C52.778 19.7535 52.5285 20.0025 52.229 20.302C52.079 20.452 51.93 20.6015 51.7305 20.701C51.5805 20.801 51.4805 20.901 51.331 21.05C51.032 21.3 50.7325 21.499 50.3835 21.6985C50.084 21.8985 49.735 22.098 49.386 22.2475L48.338 22.6965C47.989 22.846 47.64 22.946 47.2905 23.0455C46.9415 23.1455 46.5425 23.2455 46.193 23.295C45.794 23.345 45.445 23.395 45.096 23.445C44.846 23.445 44.547 23.4945 44.2975 23.4945C43.8985 23.4945 43.5495 23.4445 43.2005 23.4445C42.801 23.3945 42.452 23.3445 42.103 23.2945C41.7246 23.2485 41.3549 23.1477 41.0055 22.9955C41.3545 22.9455 41.7535 22.9455 42.103 22.846C42.502 22.796 42.851 22.696 43.2005 22.5965C43.5495 22.4965 43.9485 22.397 44.248 22.2475L45.2955 21.7985C45.6445 21.6485 45.944 21.4495 46.293 21.25C46.5925 21.05 46.9415 20.801 47.241 20.6015C47.54 20.3515 47.8395 20.1025 48.089 19.853C48.388 19.6035 48.6375 19.3045 48.887 19.055C49.1365 18.7555 49.386 18.4565 49.5855 18.157C49.6355 18.107 49.6355 18.057 49.6855 18.007C49.8345 17.758 50.034 17.4585 50.184 17.2095C50.37 16.8871 50.5365 16.5538 50.6825 16.2115C50.8325 15.8625 50.9825 15.513 51.082 15.164L51.381 14.1165C51.431 13.7175 51.531 13.3685 51.531 13.019C51.581 12.62 51.581 12.271 51.581 11.9215C51.581 11.6725 51.581 11.373 51.531 11.1235C51.481 10.7245 51.431 10.3755 51.381 10.026C51.331 9.62696 51.231 9.27796 51.1315 8.92846C51.0315 8.57946 50.882 8.23046 50.7825 7.88096C50.6325 7.53196 50.483 7.18296 50.3335 6.88346C50.134 6.53446 49.9845 6.23496 49.785 5.88596C49.585 5.58646 49.336 5.28696 49.1365 4.98796C48.887 4.68846 48.6375 4.43896 48.388 4.13996C48.2385 3.98996 48.089 3.84046 47.939 3.74096C47.191 3.14246 46.4425 2.64346 45.6445 2.14446C45.5445 2.09446 45.445 2.04446 45.2955 1.99446C44.647 1.44646 44.1485 1.29646 43.65 1.09696Z" fill="#DF234F"/>
</g>
<defs>
<clipPath id="clip0_160_105">
<rect width="64" height="64" fill="white" transform="translate(0.75)"/>
</clipPath>
</defs>
</svg>
