<svg width="65" height="64" viewBox="0 0 65 64" fill="none" xmlns="http://www.w3.org/2000/svg">
<path d="M47.1545 46.056C47.547 42.7895 47.4295 42.31 49.8625 42.8395L50.48 42.8935C52.351 42.9785 54.7985 42.5925 56.2365 41.9245C59.332 40.488 61.167 38.0905 58.1155 38.72C51.1535 40.1565 50.675 37.799 50.675 37.799C58.0265 26.8915 61.0995 13.045 58.4465 9.65549C51.2115 0.410988 38.688 4.78249 38.4785 4.89549L38.4115 4.90799C37.036 4.62249 35.4965 4.45199 33.767 4.42399C30.6165 4.37199 28.226 5.24999 26.4125 6.62499C26.4125 6.62499 4.071 -2.57951 5.1105 18.2005C5.3315 22.621 11.4465 51.6495 18.7405 42.8815C21.4065 39.6755 23.9825 36.9645 23.9825 36.9645C25.2615 37.814 26.7935 38.248 28.3995 38.092L28.524 37.986C28.485 38.384 28.502 38.7735 28.5735 39.2345C26.695 41.334 27.247 41.7025 23.4905 42.4755C19.6895 43.2585 21.9225 44.653 23.38 45.0175C25.1475 45.4595 29.236 46.0855 31.999 42.2185L31.889 42.6595C32.626 43.2495 32.5765 46.898 32.6805 49.5045C32.785 52.1115 32.9595 54.544 33.491 55.9785C34.0225 57.4125 34.6495 61.1065 39.5865 60.0485C43.7125 59.1665 46.867 57.894 47.1545 46.056Z" fill="black"/>
<path d="M37.979 62.6279C35.7955 62.6279 34.3735 61.7834 33.51 60.9679C32.2065 59.7379 31.6895 58.1534 31.3805 57.2069L31.247 56.8119C30.625 55.1329 30.414 52.7154 30.289 49.6024C30.27 49.1349 30.257 48.6534 30.2425 48.1429C30.232 47.7694 30.219 47.3009 30.2 46.8109C29.4134 47.186 28.5784 47.4499 27.719 47.5949C26.1795 47.8579 24.5245 47.7729 22.799 47.3414C21.5815 47.0369 20.3165 46.4059 19.5955 45.4314C17.494 47.2719 15.4895 47.0224 14.3975 46.6579C12.471 46.0154 10.747 44.2099 9.12651 41.1394C7.97201 38.9519 6.85551 36.1019 5.80751 32.6679C3.98251 26.6879 2.82301 20.3894 2.72001 18.3214C2.39601 11.8489 4.13851 7.21991 7.89801 4.56441C13.8285 0.375406 22.814 2.83891 26.09 3.95741C28.291 2.63091 30.8805 1.98541 33.8065 2.03191C35.378 2.05741 36.8745 2.19541 38.2645 2.44341C39.7145 1.98741 42.5785 1.33291 45.857 1.37391C51.8975 1.44591 56.903 3.79991 60.3315 8.18141C62.7785 11.3074 61.5685 17.8719 60.63 21.5069C59.309 26.6199 56.9945 32.0579 54.1515 36.7919C54.9235 36.7974 56.042 36.7049 57.632 36.3764C60.769 35.7289 61.6865 37.4109 61.9355 38.1639C62.933 41.1849 58.597 43.4679 57.2445 44.0959C55.5115 44.9004 52.686 45.3904 50.372 45.2844L50.271 45.2779L49.663 45.2244L49.603 45.7314L49.545 46.2269C49.3895 52.2264 48.5325 56.0259 46.769 58.5364C44.9205 61.1684 42.3515 61.9059 40.0885 62.3909C39.3165 62.5559 38.615 62.6279 37.979 62.6279ZM33.384 40.7924C34.7935 41.9204 34.917 44.0429 35.0275 48.0094C35.0415 48.5044 35.0545 48.9729 35.072 49.4104C35.125 50.7354 35.2495 53.8379 35.7355 55.1489C35.804 55.3344 35.8655 55.5224 35.9305 55.7219C36.472 57.3799 36.7435 58.2114 39.085 57.7109C41.0505 57.2894 42.061 56.9114 42.852 55.7854C44.0015 54.1484 44.6445 50.8554 44.7625 45.9979L47.154 46.0559L44.779 45.7709L44.849 45.1779C45.0765 43.2229 45.2405 41.8109 46.547 40.8769C47.5955 40.1279 48.79 40.2004 49.7415 40.3719C48.696 39.5819 48.407 38.6554 48.33 38.2754L48.1305 37.2929L48.691 36.4614C51.9195 31.6714 54.5815 25.7844 55.9955 20.3094C57.4485 14.6839 57.0055 11.6964 56.5625 11.1314C50.698 3.63791 40.5285 6.73191 39.4665 7.08291L39.287 7.17991L38.387 7.34741L37.926 7.25191C36.655 6.98791 35.243 6.84191 33.7295 6.81741C31.3515 6.77741 29.433 7.33941 27.86 8.53291L26.7685 9.36041L25.502 8.83891C22.796 7.73241 14.848 5.50791 10.654 8.47841C8.32601 10.1274 7.26551 13.3584 7.50151 18.0819C7.57951 19.6414 8.63901 25.5449 10.387 31.2704C12.8025 39.1829 14.9975 41.8114 15.914 42.1169C16.074 42.1709 16.489 41.8484 16.902 41.3524C18.624 39.2881 20.4071 37.2755 22.249 35.3174L23.634 33.8599L25.3085 34.9724C25.9835 35.4209 26.728 35.6754 27.4925 35.7234L31.486 32.3174L30.9075 38.2214C30.8945 38.3539 30.888 38.5344 30.94 38.8694L31.114 39.9884L30.359 40.8324L30.272 40.9304L32.466 41.9429L33.384 40.7924Z" fill="black"/>
<path d="M58.1155 38.72C51.153 40.1565 50.6745 37.799 50.6745 37.799C58.026 26.891 61.099 13.044 58.447 9.65547C51.212 0.411468 38.6875 4.78297 38.4785 4.89647L38.411 4.90847C37.0355 4.62297 35.496 4.45297 33.7655 4.42497C30.615 4.37347 28.2255 5.25097 26.412 6.62597C26.412 6.62597 4.07 -2.57803 5.109 18.2015C5.33 22.6225 11.445 51.651 18.739 42.883C21.405 39.677 23.9805 36.966 23.9805 36.966C25.26 37.8155 26.7915 38.2495 28.397 38.0935L28.522 37.9875C28.483 38.3855 28.501 38.775 28.572 39.236C26.693 41.3355 27.245 41.704 23.4885 42.477C19.6875 43.26 21.9205 44.6545 23.3785 45.019C25.1455 45.461 29.2345 46.087 31.997 42.22L31.8865 42.661C32.623 43.251 33.14 46.497 33.0535 49.4395C32.9665 52.382 32.9085 54.4025 33.489 55.9805C34.069 57.5585 34.647 61.1085 39.585 60.0505C43.711 59.1665 45.849 56.875 46.147 53.053C46.358 50.3355 46.8355 50.7375 46.866 48.308L47.2495 47.158C47.6915 43.4745 47.3195 42.2865 49.862 42.839L50.4795 42.893C52.3505 42.978 54.799 42.592 56.2365 41.924C59.3315 40.4885 61.167 38.0905 58.1155 38.72Z" fill="#336791"/>
<path d="M38.2285 61.1535C34.1125 61.1535 32.8085 57.8941 32.275 56.5611C31.494 54.6076 31.3255 47.0266 31.4995 40.8096C31.5021 40.7047 31.5254 40.6014 31.5681 40.5056C31.6107 40.4098 31.6719 40.3234 31.7482 40.2514C31.8244 40.1793 31.9141 40.1231 32.0122 40.0859C32.1102 40.0487 32.2147 40.0312 32.3195 40.0345C32.4242 40.0374 32.5273 40.0609 32.623 40.1036C32.7186 40.1463 32.8049 40.2075 32.8769 40.2836C32.9489 40.3597 33.0051 40.4493 33.0425 40.5472C33.0798 40.6451 33.0975 40.7493 33.0945 40.854C32.894 48.0245 33.1785 54.5225 33.7565 55.9685C34.6585 58.223 36.0265 60.1951 39.894 59.3666C43.5655 58.5791 44.9405 57.1871 45.553 53.6366C46.023 50.9121 46.9525 43.161 47.067 41.6315C47.0746 41.527 47.1028 41.425 47.15 41.3314C47.1971 41.2378 47.2623 41.1545 47.3417 41.0861C47.4211 41.0177 47.5133 40.9657 47.6129 40.933C47.7124 40.9003 47.8175 40.8876 47.922 40.8955C48.1329 40.9115 48.3288 41.0105 48.4668 41.1708C48.6048 41.3311 48.6736 41.5396 48.658 41.7505C48.5385 43.343 47.6135 51.0791 47.1255 53.9081C46.4025 58.1016 44.533 60.0035 40.2285 60.9265C39.497 61.083 38.8325 61.153 38.2285 61.1535ZM15.9105 45.2331C15.5507 45.2318 15.1935 45.1727 14.8525 45.058C12.179 44.166 9.63248 39.812 7.28348 32.1155C5.49548 26.257 4.36248 20.142 4.26298 18.1545C3.96848 12.2625 5.48548 8.09405 8.77298 5.76555C15.2765 1.15755 26.217 5.54555 26.6795 5.73455C26.8754 5.81458 27.0315 5.96916 27.1135 6.16429C27.1954 6.35942 27.1965 6.57912 27.1165 6.77505C27.0365 6.97098 26.8819 7.12709 26.6867 7.20904C26.4916 7.291 26.2719 7.29208 26.076 7.21205C25.9705 7.16905 15.4795 2.96605 9.69198 7.06955C6.88098 9.06255 5.59048 12.7655 5.85598 18.075C5.93948 19.7495 6.99798 25.7175 8.80898 31.6495C10.906 38.5205 13.2925 42.856 15.357 43.5445C15.681 43.6525 16.667 43.981 18.0765 42.286C19.7202 40.312 21.4255 38.39 23.19 36.523C23.3376 36.3758 23.537 36.2922 23.7456 36.2901C23.9541 36.288 24.1551 36.3676 24.3057 36.5119C24.4562 36.6562 24.5443 36.8537 24.5511 37.0621C24.5579 37.2705 24.4828 37.4733 24.342 37.627C24.318 37.652 21.9185 40.1605 19.3035 43.3065C18.065 44.796 16.878 45.2331 15.9105 45.2331ZM50.625 38.5106C50.4803 38.5104 50.3385 38.4709 50.2146 38.3963C50.0906 38.3217 49.9893 38.2148 49.9214 38.0871C49.8535 37.9594 49.8216 37.8156 49.8291 37.6712C49.8366 37.5267 49.8832 37.387 49.964 37.267C57.3955 26.2395 60.004 12.915 57.77 10.06C54.958 6.46705 50.9875 4.59055 45.968 4.48205C42.2515 4.40205 39.2975 5.35105 38.8145 5.51655L38.693 5.56605C38.2075 5.71855 37.835 5.45255 37.6945 5.14155C37.6144 4.96336 37.6022 4.76203 37.6604 4.57551C37.7185 4.38899 37.8428 4.23019 38.01 4.12905C38.033 4.11555 38.106 4.08455 38.2245 4.04105C39.045 3.74055 42.044 2.84055 45.7585 2.88305C51.3125 2.94205 55.9005 5.08355 59.0255 9.07705C60.504 10.9665 60.5075 15.3195 59.035 21.0205C57.534 26.833 54.7095 33.0795 51.2865 38.159C51.1335 38.3875 50.8815 38.5106 50.625 38.5106ZM51.005 43.6156C49.736 43.6156 48.5985 43.4365 47.9175 43.0285C47.2175 42.609 47.084 42.039 47.0665 41.7365C46.8755 38.3815 48.7265 37.7975 49.6705 37.531C49.539 37.332 49.352 37.098 49.1585 36.8565C48.608 36.1685 47.854 35.2265 47.273 33.8175C47.182 33.5975 46.897 33.086 46.567 32.4935C44.7775 29.2845 41.054 22.607 43.446 19.1875C44.553 17.605 46.7575 16.982 50.0055 17.3295C49.05 14.4185 44.5 5.31255 33.7035 5.13555C30.4565 5.08155 27.7935 6.08005 25.7925 8.10055C21.3125 12.625 21.4745 20.8115 21.477 20.8935C21.4797 20.9983 21.4618 21.1025 21.4243 21.2003C21.3868 21.2981 21.3304 21.3876 21.2582 21.4636C21.1861 21.5396 21.0998 21.6007 21.0041 21.6433C20.9084 21.6859 20.8052 21.7093 20.7005 21.712C20.5958 21.7148 20.4915 21.6969 20.3937 21.6594C20.2959 21.6218 20.2064 21.5654 20.1304 21.4933C20.0544 21.4212 19.9933 21.3348 19.9507 21.2391C19.9081 21.1434 19.8847 21.0403 19.882 20.9355C19.872 20.572 19.705 11.981 24.659 6.97755C26.9775 4.63605 30.0295 3.48005 33.73 3.54055C40.637 3.65405 45.083 7.16555 47.596 10.091C50.3355 13.2795 51.6785 16.7965 51.789 17.9705C51.8715 18.8435 51.245 19.018 51.1185 19.044L50.8305 19.0505C47.643 18.54 45.598 18.8945 44.7525 20.1025C42.933 22.703 46.4555 29.0195 47.9595 31.717C48.3435 32.405 48.6205 32.9025 48.7475 33.2095C49.2415 34.4075 49.886 35.2126 50.4035 35.8596C50.859 36.4286 51.2535 36.922 51.3945 37.501C51.46 37.616 52.3895 38.9911 57.905 37.8526C59.2875 37.5676 60.1165 37.811 60.37 38.5775C60.8685 40.085 58.0715 41.8435 56.523 42.5625C55.1355 43.2075 52.921 43.6156 51.005 43.6156ZM48.657 41.605C48.832 41.7815 49.7075 42.086 51.5205 42.008C53.1325 41.939 54.8325 41.5886 55.8525 41.1151C57.157 40.5091 58.028 39.8315 58.479 39.369L58.229 39.4151C54.7025 40.1431 52.208 40.046 50.815 39.1265C50.7214 39.0647 50.6313 38.9977 50.545 38.926C50.394 38.9855 50.2545 39.0246 50.155 39.0526C49.365 39.2741 48.548 39.5035 48.657 41.605ZM25.876 46.0625C25 46.0625 24.078 45.9431 23.1365 45.7076C22.161 45.4636 20.5165 44.729 20.5415 43.5225C20.57 42.169 22.5385 41.763 23.2795 41.6105C25.9565 41.059 26.131 40.8381 26.9675 39.7756C27.2115 39.4661 27.515 39.0805 27.929 38.6185C28.5435 37.9305 29.215 37.5821 29.925 37.5821C30.4195 37.5821 30.825 37.7495 31.093 37.861C31.947 38.215 32.6595 39.0711 32.9525 40.0946C33.217 41.0181 33.0905 41.907 32.5975 42.5975C30.979 44.864 28.6545 46.0625 25.876 46.0625ZM22.265 43.591C22.5055 43.777 22.9875 44.0255 23.524 44.1595C24.3395 44.3635 25.1305 44.467 25.8765 44.467C28.1495 44.467 29.9745 43.526 31.3 41.67C31.5765 41.283 31.4935 40.7916 31.4195 40.5331C31.2645 39.9916 30.8795 39.499 30.483 39.3345C30.268 39.2455 30.0895 39.1776 29.9255 39.1776C29.8375 39.1776 29.5695 39.1775 29.1185 39.682C28.8073 40.0321 28.5081 40.3926 28.2215 40.7631C27.1795 42.0861 26.702 42.535 23.602 43.1735C22.8455 43.3285 22.4575 43.4865 22.265 43.591ZM28.3995 39.911C28.209 39.9107 28.025 39.8423 27.8805 39.7182C27.7361 39.594 27.6409 39.4223 27.612 39.2341C27.5921 39.1016 27.5788 38.9683 27.572 38.8345C25.54 38.7965 23.5795 37.9245 22.091 36.3715C20.209 34.408 19.3525 31.6875 19.7415 28.908C20.164 25.8895 20.006 23.225 19.921 21.7935C19.8975 21.3955 19.8805 21.108 19.8815 20.909C19.883 20.6565 19.888 19.987 22.126 18.8525C22.922 18.449 24.518 17.745 26.2615 17.5645C29.15 17.266 31.054 18.5525 31.624 21.1875C33.1625 28.3015 31.746 31.448 30.7115 33.746C30.519 34.174 30.337 34.5781 30.1915 34.9696L30.063 35.3145C29.5165 36.78 29.044 38.0461 29.189 38.9916C29.2049 39.0951 29.2003 39.2008 29.1753 39.3025C29.1504 39.4043 29.1057 39.5001 29.0437 39.5846C28.9817 39.6691 28.9037 39.7405 28.8141 39.7948C28.7245 39.8491 28.625 39.8852 28.5215 39.9011L28.3995 39.911ZM21.482 21.13L21.513 21.6995C21.601 23.1865 21.765 25.9535 21.321 29.1295C21.0005 31.422 21.7005 33.6596 23.2425 35.2676C24.461 36.5386 26.0645 37.2401 27.7125 37.2401H27.7465C27.931 36.4626 28.2375 35.6415 28.5675 34.757L28.695 34.414C28.8595 33.972 29.052 33.544 29.256 33.091C30.2515 30.879 31.491 28.1255 30.0635 21.525C29.781 20.2175 29.0955 19.461 27.969 19.2115C25.655 18.7005 22.2065 20.441 21.482 21.13ZM26.297 20.7915C26.257 21.0735 26.8135 21.8265 27.5395 21.927C28.264 22.0285 28.884 21.4395 28.9235 21.1575C28.963 20.8755 28.407 20.5645 27.681 20.4635C26.9555 20.3625 26.3355 20.5095 26.297 20.7915ZM27.706 22.2045L27.5025 22.1905C27.0525 22.128 26.5975 21.8445 26.286 21.4315C26.1765 21.2865 25.998 21.0055 26.0335 20.7545C26.084 20.3865 26.533 20.166 27.2335 20.166C27.39 20.166 27.553 20.1775 27.717 20.2005C28.1 20.2535 28.4555 20.364 28.718 20.5105C29.173 20.7645 29.2065 21.048 29.186 21.1945C29.13 21.601 28.4835 22.2045 27.706 22.2045ZM26.5615 20.8385C26.584 21.0125 27.015 21.5865 27.576 21.664L27.7065 21.673C28.2245 21.673 28.6115 21.2655 28.657 21.132C28.609 21.041 28.276 20.815 27.6445 20.727C27.5085 20.7075 27.3713 20.6977 27.234 20.6975C26.828 20.6975 26.6125 20.789 26.5615 20.8385ZM48.364 20.216C48.4035 20.498 47.8475 21.251 47.122 21.352C46.397 21.453 45.7765 20.8645 45.7365 20.5825C45.6985 20.3005 46.2545 19.989 46.9795 19.8885C47.7045 19.787 48.324 19.9345 48.364 20.216ZM46.9545 21.496C46.2565 21.496 45.654 20.953 45.6045 20.6005C45.547 20.1775 46.2435 19.856 46.9605 19.7565C47.1185 19.7345 47.275 19.7235 47.4255 19.7235C48.0445 19.7235 48.4545 19.905 48.4955 20.198C48.522 20.3875 48.3765 20.68 48.126 20.944C47.9605 21.1175 47.613 21.418 47.1395 21.4835L46.9545 21.496ZM47.426 19.9895C47.288 19.9895 47.144 20 46.998 20.02C46.2775 20.1205 45.8475 20.4095 45.8685 20.5645C45.8925 20.735 46.3525 21.2305 46.955 21.2305L47.1035 21.22C47.497 21.1655 47.7925 20.9085 47.9335 20.7605C48.155 20.528 48.243 20.309 48.2325 20.2345C48.2185 20.1355 47.9525 19.9895 47.426 19.9895ZM49.4085 36.411C49.2639 36.4111 49.1221 36.3719 48.9981 36.2976C48.8742 36.2232 48.7728 36.1166 48.7048 35.989C48.6367 35.8615 48.6047 35.7179 48.612 35.5735C48.6194 35.4292 48.6659 35.2895 48.7465 35.1695C50.4455 32.632 50.1345 30.0445 49.834 27.542C49.7055 26.476 49.5735 25.3735 49.6075 24.3155C49.6425 23.227 49.781 22.329 49.9145 21.4605C50.073 20.4315 50.223 19.4595 50.161 18.3055C50.1553 18.201 50.1703 18.0963 50.2052 17.9975C50.24 17.8987 50.2939 17.8077 50.3639 17.7297C50.4338 17.6518 50.5185 17.5884 50.6129 17.5431C50.7074 17.4979 50.8099 17.4717 50.9145 17.466C51.0191 17.4604 51.1238 17.4754 51.2226 17.5102C51.3214 17.545 51.4123 17.599 51.4903 17.6689C51.5682 17.7389 51.6317 17.8235 51.6769 17.918C51.7221 18.0125 51.7483 18.115 51.754 18.2195C51.825 19.5385 51.6555 20.6385 51.4915 21.703C51.365 22.5245 51.234 23.374 51.2025 24.3665C51.172 25.3035 51.2915 26.2985 51.418 27.3515C51.738 30.0125 52.1005 33.0285 50.0725 36.057C49.9995 36.1661 49.9006 36.2555 49.7848 36.3172C49.669 36.379 49.5397 36.4112 49.4085 36.411Z" fill="white"/>
</svg>
