<svg width="65" height="64" viewBox="0 0 65 64" fill="none" xmlns="http://www.w3.org/2000/svg">
<g clip-path="url(#clip0_159_97)">
<path d="M32.7499 37.7001C35.898 37.7001 38.4499 35.1481 38.4499 32C38.4499 28.852 35.898 26.3 32.7499 26.3C29.6019 26.3 27.0499 28.852 27.0499 32C27.0499 35.1481 29.6019 37.7001 32.7499 37.7001Z" fill="#61DAFB"/>
<path d="M54.4 22.6C53.3 22.2 52.15 21.8001 50.95 21.4501C51.25 20.2501 51.5 19.05 51.7 17.9C52.75 11.3 51.6 6.65005 48.4 4.85005C47.45 4.30005 46.4 4.05005 45.2 4.05005C41.7 4.05005 37.25 6.65005 32.75 11C28.25 6.65005 23.7999 4.05005 20.2999 4.05005C19.0999 4.05005 18.05 4.30005 17.1 4.85005C13.9 6.70005 12.75 11.35 13.8 17.9C14 19.05 14.25 20.2501 14.55 21.4501C13.35 21.8001 12.2 22.15 11.1 22.6C4.84995 25 1.44995 28.3 1.44995 32C1.44995 35.7 4.89995 39.0001 11.1 41.4001C12.2 41.8001 13.35 42.2 14.55 42.55C14.25 43.75 14 44.95 13.8 46.1C12.75 52.7 13.9 57.3501 17.1 59.1501C18.05 59.7001 19.0999 59.9501 20.2999 59.9501C23.8499 59.9501 28.3 57.35 32.75 53C37.25 57.35 41.7 59.9501 45.2 59.9501C46.4 59.9501 47.45 59.7001 48.4 59.1501C51.6 57.3001 52.75 52.65 51.7 46.1C51.5 44.95 51.25 43.75 50.95 42.55C52.15 42.2 53.3 41.8501 54.4 41.4001C60.65 39.0001 64.0499 35.7 64.0499 32C64.0499 28.3 60.65 25 54.4 22.6ZM47 7.35005C49.05 8.55005 49.75 12.25 48.9 17.5C48.75 18.55 48.5 19.65 48.2 20.8C45.6 20.2 42.85 19.8 39.95 19.55C38.25 17.15 36.5 15 34.75 13.05C38.45 9.40005 42.2 6.90005 45.25 6.90005C45.9 6.90005 46.5 7.05005 47 7.35005ZM41.4 37C40.5 38.6 39.4499 40.2 38.3499 41.8C36.4999 41.95 34.65 42 32.75 42C30.8 42 28.9499 41.95 27.15 41.8C26.05 40.2 25.05 38.6 24.15 37C23.2 35.35 22.3 33.65 21.5 32C22.3 30.35 23.2 28.65 24.15 27C25.05 25.4 26.1 23.8001 27.2 22.2001C29.05 22.0501 30.8999 22 32.7999 22C34.7499 22 36.6 22.0501 38.4 22.2001C39.5 23.8001 40.5 25.4 41.4 27C42.35 28.65 43.2499 30.35 44.0499 32C43.1999 33.65 42.35 35.3 41.4 37ZM45.5499 35.35C46.2999 37.1 46.9 38.8 47.45 40.5C45.75 40.9 43.9499 41.2001 42.0499 41.4501C42.6499 40.5001 43.2999 39.5001 43.8499 38.4501C44.4499 37.4001 44.9999 36.35 45.5499 35.35ZM32.75 48.9001C31.55 47.6001 30.3999 46.2 29.2999 44.75C30.4499 44.8 31.6 44.85 32.75 44.85C33.9 44.85 35.05 44.8 36.2 44.75C35.1 46.2 33.95 47.6001 32.75 48.9001ZM23.45 41.4001C21.55 41.1501 19.7499 40.8501 18.0499 40.4501C18.5999 38.8001 19.2 37.05 19.95 35.3C20.5 36.3 21.05 37.35 21.65 38.35C22.25 39.45 22.85 40.4001 23.45 41.4001ZM19.95 28.65C19.2 26.9 18.5999 25.2 18.0499 23.5C19.7499 23.1 21.55 22.8 23.45 22.55C22.85 23.5 22.2 24.5 21.65 25.55C21.05 26.6 20.5 27.65 19.95 28.65ZM32.75 15.1C33.95 16.4 35.1 17.8 36.2 19.25C35.05 19.2 33.9 19.15 32.75 19.15C31.6 19.15 30.4499 19.2 29.2999 19.25C30.3999 17.8 31.55 16.4 32.75 15.1ZM43.8499 25.6L42.0499 22.6C43.9499 22.85 45.75 23.15 47.45 23.55C46.9 25.2 46.2999 26.9501 45.5499 28.7001C44.9999 27.6501 44.4499 26.6 43.8499 25.6ZM16.6 17.5C15.75 12.25 16.45 8.55005 18.5 7.35005C19 7.05005 19.6 6.90005 20.25 6.90005C23.25 6.90005 27 9.35005 30.75 13.05C29 14.95 27.2499 17.15 25.5499 19.55C22.6499 19.8 19.9 20.25 17.3 20.8C17 19.65 16.8 18.55 16.6 17.5ZM4.24995 32C4.24995 29.65 7.09995 27.15 12.1 25.3C13.1 24.9 14.2 24.55 15.3 24.25C16.1 26.75 17.0999 29.4 18.2999 32.05C17.0999 34.7 16.05 37.3 15.3 39.8C8.39995 37.8 4.24995 34.8 4.24995 32ZM18.5 56.6501C16.45 55.4501 15.75 51.75 16.6 46.5C16.75 45.45 17 44.3501 17.3 43.2001C19.9 43.8001 22.6499 44.2001 25.5499 44.4501C27.2499 46.8501 29 49.0001 30.75 50.9501C27.05 54.6001 23.3 57.1 20.25 57.1C19.6 57.1 19 56.9501 18.5 56.6501ZM48.9 46.5C49.75 51.75 49.05 55.4501 47 56.6501C46.5 56.9501 45.9 57.1 45.25 57.1C42.25 57.1 38.5 54.6501 34.75 50.9501C36.5 49.0501 38.25 46.8501 39.95 44.4501C42.85 44.2001 45.6 43.7501 48.2 43.2001C48.5 44.3501 48.7 45.45 48.9 46.5ZM53.4 38.7001C52.4 39.1001 51.3 39.45 50.2 39.75C49.4 37.25 48.4 34.6001 47.2 31.9501C48.4 29.3001 49.45 26.7001 50.2 24.2001C57.1 26.2001 61.25 29.2 61.25 32C61.25 34.35 58.35 36.8501 53.4 38.7001Z" fill="#61DAFB"/>
</g>
<defs>
<clipPath id="clip0_159_97">
<rect width="64" height="64" fill="white" transform="translate(0.75)"/>
</clipPath>
</defs>
</svg>
