<svg width="65" height="64" viewBox="0 0 65 64" fill="none" xmlns="http://www.w3.org/2000/svg">
<g clip-path="url(#clip0_160_102)">
<path d="M32.752 12.801C24.2185 12.801 18.887 17.066 16.752 25.5995C19.951 21.334 23.6855 19.7345 27.951 20.801C30.3865 21.408 32.127 23.174 34.0545 25.131C37.1915 28.3145 40.8225 32 48.752 32C57.285 32 62.617 27.7345 64.752 19.199C61.5525 23.467 57.8185 25.0665 53.5525 24C51.1175 23.3925 49.379 21.627 47.449 19.67C44.314 16.4865 40.684 12.801 32.752 12.801ZM16.752 32C8.21895 32 2.88695 36.2655 0.751953 44.801C3.95095 40.533 7.68495 38.9335 11.951 40C14.3865 40.6075 16.127 42.373 18.0545 44.33C21.1915 47.5135 24.8225 51.199 32.752 51.199C41.285 51.199 46.617 46.934 48.752 38.4005C45.5525 42.666 41.8185 44.2655 37.5525 43.199C35.1175 42.592 33.379 40.826 31.449 38.869C28.314 35.6855 24.684 32 16.752 32Z" fill="#38BDF8"/>
</g>
<defs>
<clipPath id="clip0_160_102">
<rect width="64" height="64" fill="white" transform="translate(0.75)"/>
</clipPath>
</defs>
</svg>
